<svg width="36" height="25" viewBox="0 0 36 25" fill="var(--color-text-l1)" xmlns="http://www.w3.org/2000/svg">
<path d="M28.4116 7.31748L30.4159 5.3131C30.9452 4.7838 30.9452 3.92638 30.4159 3.39709C29.8866 2.8678 29.0289 2.8678 28.4997 3.39709L26.1115 5.78522C23.6866 4.44376 20.9013 3.67758 17.9392 3.67758C14.9773 3.67758 12.192 4.44376 9.76704 5.78522L7.37867 3.39697C6.84938 2.86768 5.99172 2.86768 5.46243 3.39697C4.93313 3.92626 4.93313 4.78368 5.46243 5.31298L7.46681 7.31736C3.5326 10.422 1 15.2417 1 20.6307C1 21.379 1.60683 22 2.35515 22H33.5232C34.2715 22 34.8783 21.379 34.8783 20.6307C34.8783 15.2419 32.3457 10.4221 28.4116 7.31748ZM3.7745 19.2898C4.45863 12.1753 10.5501 6.41611 17.9392 6.41611C25.3282 6.41611 31.4197 12.1754 32.1038 19.2898H3.7745Z" fill="var(--color-text-l1)"/>
<path d="M11.4628 16.4772C12.5533 16.4772 13.4373 15.5932 13.4373 14.5027C13.4373 13.4122 12.5533 12.5282 11.4628 12.5282C10.3723 12.5282 9.48834 13.4122 9.48834 14.5027C9.48834 15.5932 10.3723 16.4772 11.4628 16.4772Z" fill="var(--color-text-l1)"/>
<path d="M24.3259 16.4772C25.4164 16.4772 26.3004 15.5932 26.3004 14.5027C26.3004 13.4122 25.4164 12.5282 24.3259 12.5282C23.2355 12.5282 22.3514 13.4122 22.3514 14.5027C22.3514 15.5932 23.2355 16.4772 24.3259 16.4772Z" fill="var(--color-text-l1)"/>
</svg>
